<svg xmlns="http://www.w3.org/2000/svg"
  width="156.027"
  height="44.153"
  viewBox="0 0 156.027 44.153"
>
  <g transform="translate(-1342.125 -133)">
  <g transform="translate(1342.125 133)">
    <path
      d="M137.184,26.433A17.8,17.8,0,0,0,127.8,23.62c-3.713,0-6.337,1.466-6.337,3.973,0,2.435,2.861,3.168,6.833,3.83l1.868.307c5.912.97,10.546,3.5,10.546,9.27,0,7.307-6.432,10.783-13.549,10.783-5.014,0-10.4-1.466-13.952-4.328l3.429-5.32a17.479,17.479,0,0,0,10.546,3.57c3.666,0,6.5-1.442,6.5-4,0-2.294-2.412-3.145-7.023-3.878l-2.1-.331c-5.841-.923-10.1-3.5-10.1-9.482,0-6.905,6.149-10.5,13.2-10.5a23.286,23.286,0,0,1,12.65,3.524l-3.121,5.391Z"
      transform="translate(-70.62 -16.81)"
      fill="#e94589"
    />
    <path
      d="M187.593,39.8v-2.53h6.03V69.646h-6.148V57.8a8.382,8.382,0,0,1-6.74,2.98c-6.313,0-11.09-5.178-11.09-12.06s4.776-12.06,11.09-12.06a8.385,8.385,0,0,1,6.857,3.145Zm-11.634,8.914c0,3.5,2.294,6.313,5.912,6.313,3.523,0,5.912-2.7,5.912-6.313s-2.388-6.313-5.912-6.313c-3.618,0-5.912,2.814-5.912,6.313Z"
      transform="translate(-97.144 -25.805)"
      fill="#e94589"
    />
    <path
      d="M241.3,50.965c0,7.236-5.108,10.357-10.83,10.357-5.746,0-10.853-3.121-10.853-10.357V37.818h6.171v12.6c0,3.665,2.01,5.154,4.682,5.154,2.649,0,4.682-1.489,4.682-5.154v-12.6H241.3V50.965Z"
      transform="translate(-120.627 -26.35)"
      fill="#e94589"
    />
    <path
      d="M271.481,20.154a3.937,3.937,0,1,1-3.948-3.972,3.916,3.916,0,0,1,3.948,3.972Zm-.827,30.41h-6.172V27.65h6.172V50.564Z"
      transform="translate(-141.301 -16.182)"
      fill="#e94589"
    />
    <path
      d="M299.817,30.332V16.806h6.148V50.857h-6.03v-2.53a8.406,8.406,0,0,1-6.857,3.121c-6.313,0-11.09-5.178-11.09-12.06s4.776-12.06,11.09-12.06a8.327,8.327,0,0,1,6.74,3ZM288.3,39.388c0,3.5,2.294,6.313,5.912,6.313,3.523,0,5.912-2.7,5.912-6.313s-2.388-6.313-5.912-6.313c-3.618,0-5.912,2.814-5.912,6.313Z"
      transform="translate(-149.938 -16.475)"
      fill="#e94589"
    />
    <path
      d="M71.82,49.3a19.479,19.479,0,1,0-38.957.005L71.82,49.3Z"
      transform="translate(-32.863 -22.592)"
      fill="#e94589"
    />
    <path
      d="M69.335,60.57a.771.771,0,0,1-.783-.7L65.634,20.423c-.113-1.487-.664-2.1-.934-2.1h0c-.283,0-.849.645-.942,2.185L61.645,56.9c-.16,2.642-1.446,3.589-2.5,3.6-1.026,0-2.312-.895-2.516-3.47L53.79,20.263c-.117-1.476-.664-2.085-.932-2.085h0c-.283,0-.85.646-.942,2.185l-2.227,36.3c-.16,2.634-1.443,3.583-2.493,3.6-1.022.024-2.3-.876-2.517-3.421L41.254,17.642a.761.761,0,0,1,.719-.808.782.782,0,0,1,.848.684l3.423,39.193c.126,1.45.666,2.049.929,2.049h0c.284,0,.85-.649.944-2.186l2.226-36.3c.16-2.64,1.446-3.587,2.5-3.6h.015c1.03,0,2.3.907,2.5,3.471L58.2,56.911c.118,1.476.665,2.086.933,2.086h0c.283,0,.85-.646.942-2.185l2.112-36.391c.16-2.644,1.447-3.591,2.5-3.6H64.7c1.035,0,2.307.914,2.5,3.495L70.12,59.769a.762.762,0,0,1-.729.8l-.056,0Z"
      transform="translate(-36.805 -16.417)"
    />
  </g>
  </g>
</svg>